{"accessors":[{"bufferView":0,"byteOffset":0,"componentType":5126,"count":507,"max":[0.005,0.005,0.005],"min":[-0.005,-0.005,-0.005],"type":"VEC3"},{"bufferView":1,"byteOffset":0,"componentType":5126,"count":507,"type":"VEC3"},{"bufferView":2,"byteOffset":0,"componentType":5123,"count":2934,"type":"SCALAR"}],"asset":{"generator":"Open CASCADE Technology 7.6 [dev.opencascade.org]","version":"2.0"},"bufferViews":[{"buffer":0,"byteLength":6084,"byteOffset":0,"byteStride":12,"target":34962},{"buffer":0,"byteLength":6084,"byteOffset":6084,"byteStride":12,"target":34962},{"buffer":0,"byteLength":5868,"byteOffset":12168,"target":34963}],"buffers":[{"byteLength":18036,"uri":"Bille.bin"}],"materials":[{"name":"mat_0","pbrMetallicRoughness":{"baseColorFactor":[0.6038273572921753,0.6038273572921753,0.6038273572921753,1.0]},"doubleSided":true}],"meshes":[{"name":"Corps","primitives":[{"attributes":{"NORMAL":1,"POSITION":0},"indices":2,"material":0,"mode":4}]}],"nodes":[{"mesh":0,"name":"Corps"}],"scene":0,"scenes":[{"nodes":[0]}]}