{"accessors":[{"bufferView":0,"byteOffset":0,"componentType":5126,"count":4,"max":[0.05,0.004,0.0],"min":[0.0,0.0,0.0],"type":"VEC3"},{"bufferView":0,"byteOffset":48,"componentType":5126,"count":4,"max":[0.0,0.004,0.0],"min":[0.0,0.0,-0.05],"type":"VEC3"},{"bufferView":0,"byteOffset":96,"componentType":5126,"count":4,"max":[0.05,0.004,0.0],"min":[0.05,0.0,-0.05],"type":"VEC3"},{"bufferView":0,"byteOffset":144,"componentType":5126,"count":4,"max":[0.05,0.0,0.0],"min":[0.0,0.0,-0.05],"type":"VEC3"},{"bufferView":0,"byteOffset":192,"componentType":5126,"count":39,"max":[0.05,0.004,0.0],"min":[0.0,0.004,-0.05],"type":"VEC3"},{"bufferView":0,"byteOffset":660,"componentType":5126,"count":4,"max":[0.05,0.004,-0.05],"min":[0.0,0.0,-0.05],"type":"VEC3"},{"bufferView":0,"byteOffset":708,"componentType":5126,"count":223,"max":[0.04543893343596963,0.004,-0.004581647209966828],"min":[0.004643347701094399,0.0025,-0.04541835279003317],"type":"VEC3"},{"bufferView":1,"byteOffset":0,"componentType":5126,"count":4,"type":"VEC3"},{"bufferView":1,"byteOffset":48,"componentType":5126,"count":4,"type":"VEC3"},{"bufferView":1,"byteOffset":96,"componentType":5126,"count":4,"type":"VEC3"},{"bufferView":1,"byteOffset":144,"componentType":5126,"count":4,"type":"VEC3"},{"bufferView":1,"byteOffset":192,"componentType":5126,"count":39,"type":"VEC3"},{"bufferView":1,"byteOffset":660,"componentType":5126,"count":4,"type":"VEC3"},{"bufferView":1,"byteOffset":708,"componentType":5126,"count":223,"type":"VEC3"},{"bufferView":2,"byteOffset":0,"componentType":5123,"count":6,"type":"SCALAR"},{"bufferView":2,"byteOffset":12,"componentType":5123,"count":6,"type":"SCALAR"},{"bufferView":2,"byteOffset":24,"componentType":5123,"count":6,"type":"SCALAR"},{"bufferView":2,"byteOffset":36,"componentType":5123,"count":6,"type":"SCALAR"},{"bufferView":2,"byteOffset":48,"componentType":5123,"count":117,"type":"SCALAR"},{"bufferView":2,"byteOffset":284,"componentType":5123,"count":6,"type":"SCALAR"},{"bufferView":2,"byteOffset":296,"componentType":5123,"count":1206,"type":"SCALAR"}],"asset":{"generator":"Open CASCADE Technology 7.6 [dev.opencascade.org]","version":"2.0"},"bufferViews":[{"buffer":0,"byteLength":3384,"byteOffset":0,"byteStride":12,"target":34962},{"buffer":0,"byteLength":3384,"byteOffset":3384,"byteStride":12,"target":34962},{"buffer":0,"byteLength":2708,"byteOffset":6768,"target":34963}],"buffers":[{"byteLength":9476,"uri":"Soucoupe.bin"}],"materials":[{"name":"mat_0","pbrMetallicRoughness":{"baseColorFactor":[0.6038273572921753,0.6038273572921753,0.6038273572921753,1.0]},"doubleSided":true}],"meshes":[{"name":"Soucoupe","primitives":[{"attributes":{"NORMAL":7,"POSITION":0},"indices":14,"material":0,"mode":4},{"attributes":{"NORMAL":8,"POSITION":1},"indices":15,"material":0,"mode":4},{"attributes":{"NORMAL":9,"POSITION":2},"indices":16,"material":0,"mode":4},{"attributes":{"NORMAL":10,"POSITION":3},"indices":17,"material":0,"mode":4},{"attributes":{"NORMAL":11,"POSITION":4},"indices":18,"material":0,"mode":4},{"attributes":{"NORMAL":12,"POSITION":5},"indices":19,"material":0,"mode":4},{"attributes":{"NORMAL":13,"POSITION":6},"indices":20,"material":0,"mode":4}]}],"nodes":[{"mesh":0,"name":"Soucoupe"}],"scene":0,"scenes":[{"nodes":[0]}]}